/* XPM */
static char *_55236405a5c48f9aa441cd0406ecb3eaA8uKjgsPkUwd4vD[] = {
/* columns rows colors chars-per-pixel */
"100 70 2 1 ",
"  c None",
". c black",
/* pixels */
"                                    ...................        .....................................",
"                                   ...................         .................  ..................",
"                                  ...................          ................   ..................",
"                                 ...................           ...............    ..................",
"                                ...................            ..............     ..................",
"                               ...................             .............      ..................",
"                              ...................              ............       ..................",
"                             ...................               ...........        ..................",
"                            ...................                ..........         ..................",
"                           ...................                 .........          ..................",
"                          ...................                  ........           ..................",
"                         ...................                   .......            ..................",
"                        ...................                    ......             ..................",
"                       ...................                     .....              ..................",
"                      ...................                      ....               ..................",
"                     ...................                       ...                ..................",
"                    ...................                        ..                 ..................",
"                   ...................                         .                  ..................",
"                  ...................                                            ...................",
"                 ...................                                             .................. ",
"                ...................                                             ..................  ",
"               ...................                                             ..................   ",
"              ...................                                             ..................    ",
"             ...................                                             ..................     ",
"            ...................                                             ..................      ",
"           ...................                                             ..................       ",
"          ...................                                             ..................        ",
"         ...................                                             ..................         ",
"        ...................                                             ..................          ",
"       ...................                                             ..................           ",
"      ...................                                             ..................            ",
"     ...................                                             ..................             ",
"    ...................                                             ..................              ",
"   ...................                                             ..................               ",
"  ...................                                             ..................                ",
" ...................                                             ..................                 ",
"...................                                             ..................                  ",
".......................................................        ...................                  ",
".......................................................        ...................                ..",
".......................................................        ...................               ...",
".......................................................        ...................              ....",
".......................................................        ...................             .....",
".......................................................        ...................            ......",
".......................................................        ...................           .......",
".......................................................        ...................          ........",
".......................................................        ...................         .........",
".......................................................        ...................        ..........",
".......................................................        ...................       ...........",
".......................................................        ...................      ............",
".......................................................        ...................     .............",
".......................................................        ...................    ..............",
".......................................................        ...................   ...............",
"                                     ..................        ...................  ................",
"                                     ..................        ................... .................",
"                                     ..................        .....................................",
"                                     ..................                                             ",
"                                     ..................                                             ",
"                                     ..................                                             ",
"                                     ..................                                             ",
"                                     ..................                                             ",
"                                     ..................                                             ",
"                                     ..................                                             ",
"                                     ..................                                             ",
"                                     ..................                                             ",
"                                     ..................                                             ",
"                                     ..................                                             ",
"                                     ..................                                             ",
"                                     ..................                                             ",
"                                     ..................                                             ",
"                                     ..................                                             "
};
