/* XPM */
static char *_2bfd1931c6e469bb4c796493e9c5241YqhejPCKGG8ag67c[] = {
/* columns rows colors chars-per-pixel */
"32 32 158 2 ",
"   c None",
".  c #342F32",
"X  c #363134",
"o  c #373234",
"O  c #3A3535",
"+  c #433D1B",
"@  c #585010",
"#  c #5B5310",
"$  c #605411",
"%  c #625A11",
"&  c #645C11",
"*  c #675F12",
"=  c #686012",
"-  c #464035",
";  c #4A4436",
":  c #564F38",
">  c #575039",
",  c #5D5639",
"<  c #655D39",
"1  c #7A6629",
"2  c #7E6B2C",
"3  c #7F6D2C",
"4  c #70624E",
"5  c #837613",
"6  c #887228",
"7  c #817337",
"8  c #987E3A",
"9  c #938715",
"0  c #948715",
"q  c #958916",
"w  c #9F9218",
"e  c #A59819",
"r  c #A5981B",
"t  c #A79A1C",
"y  c #978536",
"u  c #9A8C33",
"i  c #938639",
"p  c #93863E",
"a  c #948A38",
"s  c #9C8939",
"d  c #9C8E3A",
"f  c #A49723",
"g  c #A69824",
"h  c #A89B2C",
"j  c #B9A922",
"k  c #BCAD2F",
"l  c #AFA13A",
"z  c #B1A337",
"x  c #B5A833",
"c  c #B5A834",
"v  c #B5A835",
"b  c #BCAE30",
"n  c #BEAF36",
"m  c #BFAF36",
"M  c #B6A83C",
"N  c #BFB037",
"B  c #C7B919",
"V  c #D0BA13",
"C  c #D6BE1A",
"Z  c #C8B427",
"A  c #CFB921",
"S  c #C8B328",
"D  c #C8B428",
"F  c #C8B42E",
"G  c #D0B922",
"H  c #D0B92A",
"J  c #D0B92B",
"K  c #D0BA2A",
"L  c #D0BA2B",
"P  c #D1BB2B",
"I  c #CBB630",
"U  c #CCB935",
"Y  c #CEBA37",
"T  c #CFBD3B",
"R  c #D0BD3D",
"E  c #E0CB12",
"W  c #D9C723",
"Q  c #D5C235",
"!  c #DECF36",
"~  c #D3C13A",
"^  c #DECF3D",
"/  c #E2CF21",
"(  c #E6D833",
")  c #E4D639",
"_  c #E8DB3F",
"`  c #998B4B",
"'  c #9C895D",
"]  c #A39747",
"[  c #A39947",
"{  c #A39948",
"}  c #A89A49",
"|  c #A8984D",
" . c #A89F50",
".. c #AEA042",
"X. c #AEA143",
"o. c #B1A344",
"O. c #BBAE42",
"+. c #B4AA54",
"@. c #99876B",
"#. c #AF9D62",
"$. c #C0B344",
"%. c #C1B44B",
"&. c #CBBC4B",
"*. c #CBBA4F",
"=. c #CBBC4C",
"-. c #CBBC51",
";. c #C8BC54",
":. c #C9BD54",
">. c #CAB75F",
",. c #C9BA58",
"<. c #CABA58",
"1. c #CBBC59",
"2. c #D3C243",
"3. c #D6CB4C",
"4. c #D7CB4D",
"5. c #CFC955",
"6. c #D1C050",
"7. c #D0C754",
"8. c #D1C855",
"9. c #D7CE55",
"0. c #D8CD50",
"q. c #D8CE50",
"w. c #D9CE51",
"e. c #D8CF54",
"r. c #E2D441",
"t. c #E2D541",
"y. c #E4D740",
"u. c #E4D741",
"i. c #E3D745",
"p. c #E5D940",
"a. c #E6D940",
"s. c #E7DC40",
"d. c #E9DE40",
"f. c #EBE348",
"g. c #E9E04C",
"h. c #ECE44D",
"j. c #F1EA4D",
"k. c #E7E350",
"l. c #EDE650",
"z. c #EAE555",
"x. c #ECE654",
"c. c #EDE755",
"v. c #EBE953",
"b. c #E8E458",
"n. c #F1EC53",
"m. c #F0EC58",
"M. c #F0ED58",
"N. c #F3F15B",
"B. c #F3F15C",
"V. c #F0F05F",
"C. c #F5F45D",
"Z. c #F7F65D",
"A. c #F5F55F",
"S. c #F6F55F",
"D. c #F6F660",
"F. c #F6F663",
"G. c #F8F963",
"H. c #DABC9A",
/* pixels */
"                                                                ",
"                                                                ",
"                                                                ",
"                                                                ",
"                                                                ",
"                                                                ",
"                                                                ",
"                                                                ",
"                              F.E                               ",
"                            D.S./ V                             ",
"                          B.G.j.( C B                           ",
"                      n.v.S.C.d.d.W A Z g                       ",
"              H.    g.b.B.D.f.d.s.) G D b h     @.4             ",
"              7 6.5.z.M.B.h.p.p.p.p.! S b x w 5 6 +             ",
"              a :.9.z.M.l.t.p.t.u.u.u.Q b v e 0 $               ",
"                :.9.c.g.t.t.t.t.t.t.t.t.~ v e q @               ",
"                :.q.p.3.^ ^ ^ ^ ^ ^ ^ ^ ^ R t q #               ",
"                8.2.K J J J J J J J J J J J j 9 %               ",
"              :.8.U U F Y q.3.q.q.q.q.R I I F q &               ",
"              *.&.N N F O.1.1.+.| 1.<.%.m m N f =               ",
"              =.O.M M M l 3 < O O : y u M M M z =               ",
"              >.X.X.X.X.o.2 , X X ; s d X.X.X.X.i               ",
"            #.` ] { [ [ } 1 > . X - 8 p { { { [ | '             ",
"                                                                ",
"                                                                ",
"                                                                ",
"                                                                ",
"                                                                ",
"                                                                ",
"                                                                ",
"                                                                ",
"                                                                "
};
