/* XPM */
static char *_388633addd946a483c49c06c9096074N2oyNo4P9FBdB3fQ[] = {
/* columns rows colors chars-per-pixel */
"32 32 153 2 ",
"   c None",
".  c #2A1E16",
"X  c #2F1D1B",
"o  c #172615",
"O  c #162915",
"+  c #1E2F1A",
"@  c #1B301A",
"#  c #2B261E",
"$  c #31221E",
"%  c #352623",
"&  c #3B2725",
"*  c #352A21",
"=  c #3C2D25",
"-  c #233722",
";  c #243C22",
":  c #283C27",
">  c #343627",
",  c #323927",
"<  c #422E26",
"1  c #402A28",
"2  c #443129",
"3  c #4A352C",
"4  c #4E382E",
"5  c #513E34",
"6  c #1E531B",
"7  c #24471F",
"8  c #24531E",
"9  c #265C1C",
"0  c #285D1C",
"q  c #24611E",
"w  c #2C621D",
"e  c #244523",
"r  c #284524",
"t  c #264D23",
"y  c #2A4C25",
"u  c #2A4428",
"i  c #275324",
"p  c #295324",
"a  c #265B21",
"s  c #2A5C22",
"d  c #276021",
"f  c #2D6322",
"g  c #2F6D24",
"h  c #316623",
"j  c #386625",
"k  c #356A23",
"l  c #396E24",
"z  c #3D7225",
"x  c #3F7428",
"c  c #5A4337",
"v  c #5C4C36",
"b  c #5B443A",
"n  c #5F493D",
"m  c #614B3F",
"M  c #427626",
"N  c #457927",
"B  c #4A7D21",
"V  c #477B28",
"C  c #4A7D28",
"Z  c #6A5446",
"A  c #6C5749",
"S  c #4E8229",
"D  c #52852A",
"F  c #56892B",
"G  c #5B8D2C",
"H  c #5E912D",
"J  c #63942E",
"K  c #68972B",
"L  c #68972F",
"P  c #65982F",
"I  c #66982F",
"U  c #67982F",
"Y  c #67982F",
"T  c #68992F",
"R  c #69992F",
"E  c #699A2F",
"W  c #699A2F",
"Q  c #689830",
"!  c #6A9B30",
"~  c #6B9B30",
"^  c #6B9C30",
"/  c #6C9D30",
"(  c #6D9D31",
")  c #6E9D30",
"_  c #6D9E30",
"`  c #6E9F31",
"'  c #6C9D30",
"]  c #739B32",
"[  c #6BA32F",
"{  c #6FA031",
"}  c #71A031",
"|  c #73A330",
" . c #72A231",
".. c #72A132",
"X. c #72A332",
"o. c #73A332",
"O. c #74A331",
"+. c #75A333",
"@. c #72A432",
"#. c #75A532",
"$. c #74A432",
"%. c #76A532",
"&. c #76A533",
"*. c #75A633",
"=. c #77A733",
"-. c #77A732",
";. c #74A432",
":. c #78A733",
">. c #78A833",
",. c #79A833",
"<. c #7AA933",
"1. c #79AA33",
"2. c #7AAA33",
"3. c #7BAA33",
"4. c #7BAB33",
"5. c #7AA934",
"6. c #7AAA34",
"7. c #7CAB34",
"8. c #7DAD34",
"9. c #7CAC35",
"0. c #7EAC34",
"q. c #7EAD34",
"w. c #7EAE35",
"e. c #7FAF35",
"r. c #7CAB34",
"t. c #80AF34",
"y. c #80AF35",
"u. c #81B035",
"i. c #81B135",
"p. c #82B035",
"a. c #82B135",
"s. c #83B135",
"d. c #82B235",
"f. c #81B136",
"g. c #82B136",
"h. c #83B136",
"j. c #82B236",
"k. c #83B236",
"l. c #83B336",
"z. c #84B236",
"x. c #83B436",
"c. c #84B436",
"v. c #85B436",
"b. c #86B436",
"n. c #86B537",
"m. c #87B636",
"M. c #87B637",
"N. c #87B737",
"B. c #84B336",
"V. c #88B637",
"C. c #88B837",
"Z. c #89B837",
"A. c #8AB938",
/* pixels */
"                                                                ",
"                          f M z f 9                             ",
"                        l N C D S k 0 s                         ",
"                      [ C.$.J M z l V V k w                     ",
"                    K A.c.9.9.P N K ] G N h 8 t                 ",
"                9 l W C.c.c.>.H D >.c.4.T C s i 6               ",
"              B G S J -.>.$.*.J D >.z.t.#.C h i e               ",
"            h D D l D H $.P D C M T 4.>.G M k f a 9             ",
"          M ] c.$.G D N S z z M z S J F C D J D l f i           ",
"        0 +.V.C.g.z.$.z z G ..{ J S M z z W y.W J M p           ",
"        0 J y.V.g.g...N F g.g.x.g.>.G V D $.c.$.T M p t         ",
"      9 s S T J / / F C 0.c.g.A.c.g.+.G J 4.g...G l h h 6       ",
"      C J C C C G / ..L t.z.x.$.4.4./ D T $.W H S k l k a u     ",
"    w { g.I D G 7.y.y.+.J -.| | W J D N D H D C l f k f s y     ",
"    d H 7.$.G ..g.t.$.J D D F H F D N h z N M x l k h f s 7     ",
"  q l M F G D Q 0.$.L V z M M V C N k M k M N D F D M z l s 8   ",
"  g J F C N F F G D C M D D D J J G G W F D J / +.J D N M h a   ",
"  w S F M W V.d.Q N N J T +.-.| J J P $.[ J +.-.+.Q G V l l a   ",
"  d h h M >.c.d.9.G F -.t.y.0.9.>.~ J ] *.T / $.Q J S M l h 8   ",
"  0 M x z J 0.$.{ F J V.c.g.0.g.7.[ F P F S H ^ F M l l k r o   ",
"    g x l C J J G C S 6.9.T ../ G D N C N z z C M l f k s e     ",
"    9 w y j M z M M l G J V C C C z k f f g h z l h p s y -     ",
"        + y j k h z k k C N z z z h s f l h f h s p u : @       ",
"            r s t p a y s k l k p y y f f p i a r - ; o         ",
"              @   O e 7 : p p i u u i s i 7 r ; O               ",
"                      * = > > > = = > , , #                     ",
"                      3 m 3 3 < 2 = 2 = = %                     ",
"                    . v 5 4 A n b 2 c 2 & &                     ",
"                        # m Z n A < b c %                       ",
"                          *   < 5   $ 2 X                       ",
"                                                                ",
"                                                                "
};
